# xmcd
# 
# Track frame offsets:
#     150
#     12224
#     25077
#     37126
#     52785
#     67921
#     80928
#     92816
#     103789
#     118415
#     131414
#     146412
#     160994
#     180370
#     190321
#     209132
#     221205
#     233868
#     251184
#     263129
#     278256
#     292210
#     305745
#     318540
#     331105
# 
# Disc length: 4575
# 
# Revision: 1
# Processed by: cddbd v1.5.2PL0 Copyright (c) Steve Scherf et al.
# Submitted via: fre:ac v1.0.17
# 
DISCID=7f11dd19
DTITLE=Django Reinhardt - L'anthologie [CD 2)
DYEAR=2010
DGENRE=Jazz
TTITLE0=Oriental Shuffle
TTITLE1=Are You in the Mood
TTITLE2=Tears
TTITLE3=Chicago
TTITLE4=Liebestraum n°3
TTITLE5=Swingin' With Django
TTITLE6=Paramount Stomp
TTITLE7=Younger Generation
TTITLE8=The Man is Love
TTITLE9=Sweet Sue
TTITLE10=Lentement Mademoiselle
TTITLE11=Vous et Moi
TTITLE12=Artillerie Lourde
TTITLE13=Belleville
TTITLE14=Uptown Blues
TTITLE15=Django's Tiger
TTITLE16=Echoes Of France
TTITLE17=Blues riff
TTITLE18=How High The Moon
TTITLE19=Lover Man
TTITLE20=I'se a Muggin'
TTITLE21=Appel Indirect
TTITLE22=Why Shouldn't I Care
TTITLE23=Please Be Kind
TTITLE24=Improvisation n°2
EXTD=YEAR: 2010
EXTT0=
EXTT1=
EXTT2=
EXTT3=
EXTT4=
EXTT5=
EXTT6=
EXTT7=
EXTT8=
EXTT9=
EXTT10=
EXTT11=
EXTT12=
EXTT13=
EXTT14=
EXTT15=
EXTT16=
EXTT17=
EXTT18=
EXTT19=
EXTT20=
EXTT21=
EXTT22=
EXTT23=
EXTT24=
PLAYORDER=
